<svg width="400" height="200" viewBox="0 0 400 200" fill="none" xmlns="http://www.w3.org/2000/svg">
<path d="M138.105 87.7848V80.7262H125.293V123.999H138.412V100.021C140.662 95.0097 144.46 92.5042 149.804 92.5042C151.363 92.4967 152.918 92.6511 154.446 92.9649V80.5359C153.123 80.0956 151.735 79.8875 150.341 79.9208C145.891 79.9208 141.813 82.5421 138.105 87.7848Z" fill="#FFFFFF"/>
<path d="M196.461 118.3C200.69 113.992 202.805 108.666 202.805 102.324C202.805 96.0332 200.69 90.7272 196.461 86.4058C192.231 82.0844 186.976 79.9238 180.694 79.9238C174.416 79.9238 169.167 82.0946 164.947 86.4361C160.727 90.7777 158.617 96.0746 158.617 102.327C158.617 108.579 160.727 113.881 164.947 118.234C169.167 122.587 174.416 124.764 180.694 124.766C186.972 124.764 192.228 122.609 196.461 118.3ZM173.752 109.791C171.95 107.768 171.049 105.279 171.049 102.324C171.049 99.426 171.95 96.9564 173.752 94.9152C175.554 92.8741 177.868 91.8535 180.694 91.8535C183.521 91.8535 185.841 92.8741 187.656 94.9152C189.471 96.9564 190.379 99.426 190.379 102.324C190.379 105.248 189.471 107.73 187.656 109.771C185.841 111.813 183.521 112.833 180.694 112.833C177.87 112.833 175.556 111.819 173.752 109.791Z" fill="#FFFFFF"/>
<path d="M279.37 79.9206C273.284 79.9206 268.135 82.0435 263.924 86.2895C259.713 90.5355 257.603 95.8802 257.593 102.324C257.593 108.921 259.616 114.311 263.662 118.493C267.707 122.674 273.001 124.765 279.544 124.765C283.943 124.765 287.702 123.944 290.823 122.302C294.069 120.559 296.978 118.252 299.415 115.489L289.879 110.165C287.424 112.4 284.228 113.517 280.289 113.517C274.638 113.517 271.313 111.01 270.315 105.998H300.082C300.089 105.645 300.115 105.294 300.16 104.944C300.209 104.497 300.248 104.088 300.275 103.717C300.3 103.347 300.314 103.032 300.314 102.776C300.314 96.4392 298.36 91.0458 294.453 86.5957C290.545 82.1456 285.518 79.9206 279.37 79.9206ZM270.472 98.2192C271.11 95.8176 272.197 93.9641 273.732 92.6585C275.222 91.3694 277.133 90.6725 279.103 90.7001C281.046 90.7001 282.804 91.4568 284.377 92.9701C285.877 94.3519 286.87 96.1975 287.196 98.2109L270.472 98.2192Z" fill="#FFFFFF"/>
<path d="M330.893 79.9209C326.443 79.9209 322.364 82.5422 318.657 87.7848V80.7263H305.844V123.999H318.963V100.021C321.214 95.0098 325.011 92.5043 330.355 92.5043C331.915 92.4965 333.472 92.6509 335 92.9649V80.536C333.676 80.0953 332.287 79.8872 330.893 79.9209V79.9209Z" fill="#FFFFFF"/>
<path d="M112.647 72.5644C112.842 71.0756 112.959 69.5776 112.997 68.0766V68.0766C113.007 59.9347 116.246 52.1292 122.004 46.373C127.763 40.6169 135.569 37.3804 143.711 37.3738C151.851 37.3833 159.655 40.6211 165.411 46.3769C171.167 52.1328 174.405 59.9366 174.414 68.0766H186.788C186.788 44.3247 167.463 25 143.711 25C120.208 25 101.051 43.9248 100.654 67.3374H100.632C100.623 68.5561 100.537 69.7731 100.375 70.9811C99.8099 75.3779 98.1687 81.7165 93.5706 86.9435C89.9848 91.034 85.0502 93.8034 78.8853 95.246V66.4961H65V123.999H78.8853V107.885C82.9641 107.2 86.9322 105.97 90.6827 104.227L103.205 123.996H119.816L101.495 96.5783C101.961 96.1038 102.419 95.6184 102.874 95.1164C109.522 87.542 111.853 78.6713 112.647 72.5644Z" fill="#FFFFFF"/>
<path d="M252.038 136.651V80.7264H239.532V84.4115C236.59 81.4197 232.869 79.9238 228.369 79.9238C222.819 79.9238 218.011 82.0109 213.946 86.1851C209.88 90.3594 207.845 95.534 207.841 101.709C207.841 107.858 209.926 112.982 214.095 117.081C218.263 121.18 223.02 123.229 228.363 123.229C232.71 123.204 236.48 122.008 239.672 119.643C239.672 119.729 239.672 132.685 239.672 136.657C239.664 143.653 236.882 150.36 231.934 155.308C226.987 160.255 220.28 163.038 213.284 163.046C206.287 163.038 199.58 160.255 194.633 155.308C189.686 150.36 186.903 143.653 186.895 136.657H174.521C174.521 158.031 191.898 175.419 213.284 175.419C234.277 175.414 251.423 158.643 252.021 137.79H252.035V137.2C252.035 137.013 252.049 136.831 252.049 136.648L252.038 136.651ZM236.944 109.049C235.166 111.011 232.833 111.992 229.944 111.992C227.105 111.992 224.784 111.011 222.982 109.049C221.18 107.087 220.279 104.647 220.279 101.728C220.279 98.8118 221.18 96.3725 222.982 94.4104C224.784 92.4484 227.105 91.4673 229.944 91.4673C232.807 91.4673 235.134 92.4484 236.925 94.4104C238.716 96.3725 239.611 98.8118 239.609 101.728C239.609 104.647 238.721 107.087 236.944 109.049Z" fill="#FFFFFF"/>
<path d="M262.235 156.886C262.24 157.508 262.12 158.125 261.882 158.699C261.644 159.274 261.294 159.796 260.851 160.233C260.409 160.67 259.883 161.014 259.306 161.244C258.728 161.475 258.11 161.588 257.488 161.575C256.865 161.587 256.246 161.474 255.667 161.243C255.089 161.013 254.562 160.669 254.117 160.233C253.672 159.796 253.319 159.275 253.078 158.701C252.837 158.126 252.713 157.509 252.714 156.886C252.721 156.268 252.85 155.656 253.095 155.088C253.339 154.52 253.693 154.005 254.138 153.575C254.582 153.144 255.107 152.805 255.682 152.578C256.258 152.351 256.872 152.241 257.491 152.252C258.108 152.239 258.722 152.349 259.296 152.576C259.871 152.803 260.394 153.142 260.836 153.573C261.278 154.005 261.629 154.52 261.869 155.089C262.109 155.658 262.234 156.269 262.235 156.886V156.886ZM253.9 156.886C253.9 158.949 255.425 160.588 257.516 160.588C259.551 160.588 261.046 158.949 261.046 156.914C261.046 154.878 259.551 153.185 257.491 153.185C255.43 153.185 253.905 154.853 253.905 156.886H253.9ZM256.754 159.305H255.681V154.671C256.269 154.568 256.864 154.521 257.461 154.531C258.338 154.531 258.732 154.671 259.071 154.87C259.218 154.995 259.335 155.151 259.414 155.327C259.492 155.503 259.53 155.695 259.524 155.888C259.524 156.395 259.129 156.792 258.564 156.961V157.016C259.016 157.184 259.27 157.523 259.411 158.147C259.551 158.853 259.637 159.134 259.75 159.305H258.594C258.454 159.137 258.368 158.712 258.227 158.174C258.142 157.667 257.861 157.441 257.267 157.441H256.76L256.754 159.305ZM256.782 156.677H257.29C257.883 156.677 258.363 156.478 258.363 155.998C258.363 155.573 258.051 155.292 257.375 155.292C257.176 155.288 256.977 155.307 256.782 155.35V156.677Z" fill="#FFFFFF"/>
</svg>
